<svg xmlns="http://www.w3.org/2000/svg" viewBox="0 0 963.648 136" width="963.648" height="136" style="--bg:#FFFFFF;--fg:#27272A;--font:Inter;background:#FFFFFF">
<style>
  text { font-family: var(--font, 'Inter'), system-ui, sans-serif; }
  .mono { font-family: 'JetBrains Mono', 'SF Mono', 'Fira Code', ui-monospace, monospace; }
  svg {
    /* Derived from --bg and --fg (overridable via --line, --accent, etc.) */
    --_text:          #27272A;
    --_text-sec:      #7d7d7f;
    --_text-muted:    #a9a9aa;
    --_text-faint:    #c9c9ca;
    --_line:          #939395;
    --_arrow:         #47474a;
    --_node-fill:     #f9f9f9;
    --_node-stroke:   #d4d4d4;
    --_group-fill:    #FFFFFF;
    --_group-hdr:     #f4f4f4;
    --_inner-stroke:  #e5e5e5;
    --_key-badge:     #e9e9ea;
  }
</style>
<defs>
</defs>
<polyline class="er-relationship" data-entity1="DIAGRAM" data-entity2="NODE" data-cardinality1="one" data-cardinality2="zero-many" data-identifying="true" data-label="contains" points="180,68 410.04200000000003,68" fill="none" stroke="#939395" stroke-width="1" />
<polyline class="er-relationship" data-entity1="NODE" data-entity2="EDGE" data-cardinality1="one" data-cardinality2="zero-many" data-identifying="true" data-label="connects" points="550.042,68 783.648,68" fill="none" stroke="#939395" stroke-width="1" />
<g class="entity" data-id="DIAGRAM" data-label="DIAGRAM">
  <rect x="40" y="40" width="140" height="56" rx="0" ry="0" fill="#f9f9f9" stroke="#d4d4d4" stroke-width="1" />
  <path d="M40,40 H180 V74 H40 Z" fill="#f4f4f4" stroke="#d4d4d4" stroke-width="1" />
  <text x="110" y="57" text-anchor="middle" font-size="13" font-weight="700" fill="#27272A" dy="4.55">DIAGRAM</text>
  <line x1="40" y1="74" x2="180" y2="74" stroke="#d4d4d4" stroke-width="0.75" />
  <text x="110" y="85" text-anchor="middle" dy="0.35em" font-size="11" fill="#c9c9ca" font-style="italic">(no attributes)</text>
</g>
<g class="entity" data-id="NODE" data-label="NODE">
  <rect x="410.04200000000003" y="40" width="140" height="56" rx="0" ry="0" fill="#f9f9f9" stroke="#d4d4d4" stroke-width="1" />
  <path d="M410.04200000000003,40 H550.042 V74 H410.04200000000003 Z" fill="#f4f4f4" stroke="#d4d4d4" stroke-width="1" />
  <text x="480.04200000000003" y="57" text-anchor="middle" font-size="13" font-weight="700" fill="#27272A" dy="4.55">NODE</text>
  <line x1="410.04200000000003" y1="74" x2="550.042" y2="74" stroke="#d4d4d4" stroke-width="0.75" />
  <text x="480.04200000000003" y="85" text-anchor="middle" dy="0.35em" font-size="11" fill="#c9c9ca" font-style="italic">(no attributes)</text>
</g>
<g class="entity" data-id="EDGE" data-label="EDGE">
  <rect x="783.648" y="40" width="140" height="56" rx="0" ry="0" fill="#f9f9f9" stroke="#d4d4d4" stroke-width="1" />
  <path d="M783.648,40 H923.648 V74 H783.648 Z" fill="#f4f4f4" stroke="#d4d4d4" stroke-width="1" />
  <text x="853.648" y="57" text-anchor="middle" font-size="13" font-weight="700" fill="#27272A" dy="4.55">EDGE</text>
  <line x1="783.648" y1="74" x2="923.648" y2="74" stroke="#d4d4d4" stroke-width="0.75" />
  <text x="853.648" y="85" text-anchor="middle" dy="0.35em" font-size="11" fill="#c9c9ca" font-style="italic">(no attributes)</text>
</g>
<line x1="184" y1="62" x2="184" y2="74" stroke="#939395" stroke-width="1.25" />
<line x1="188" y1="62" x2="188" y2="74" stroke="#939395" stroke-width="1.25" />
<line x1="406.04200000000003" y1="75" x2="394.04200000000003" y2="68" stroke="#939395" stroke-width="1.25" />
<line x1="406.04200000000003" y1="68" x2="394.04200000000003" y2="68" stroke="#939395" stroke-width="1.25" />
<line x1="406.04200000000003" y1="61" x2="394.04200000000003" y2="68" stroke="#939395" stroke-width="1.25" />
<circle cx="390.04200000000003" cy="68" r="4" fill="#FFFFFF" stroke="#939395" stroke-width="1.25" />
<line x1="554.042" y1="62" x2="554.042" y2="74" stroke="#939395" stroke-width="1.25" />
<line x1="558.042" y1="62" x2="558.042" y2="74" stroke="#939395" stroke-width="1.25" />
<line x1="779.648" y1="75" x2="767.648" y2="68" stroke="#939395" stroke-width="1.25" />
<line x1="779.648" y1="68" x2="767.648" y2="68" stroke="#939395" stroke-width="1.25" />
<line x1="779.648" y1="61" x2="767.648" y2="68" stroke="#939395" stroke-width="1.25" />
<circle cx="763.648" cy="68" r="4" fill="#FFFFFF" stroke="#939395" stroke-width="1.25" />
<rect x="270" y="57.85" width="50.04200000000001" height="20.3" rx="2" ry="2" fill="#FFFFFF" stroke="#e5e5e5" stroke-width="0.5" />
<text x="295.021" y="68" text-anchor="middle" font-size="11" font-weight="400" fill="#a9a9aa" dy="3.8499999999999996">contains</text>
<rect x="640.042" y="57.85" width="53.606" height="20.3" rx="2" ry="2" fill="#FFFFFF" stroke="#e5e5e5" stroke-width="0.5" />
<text x="666.845" y="68" text-anchor="middle" font-size="11" font-weight="400" fill="#a9a9aa" dy="3.8499999999999996">connects</text>
</svg>
