<svg xmlns="http://www.w3.org/2000/svg" viewBox="0 0 1120 660" font-family="Inter, ui-sans-serif, system-ui, sans-serif">
<style>
  text { font-family: Inter, ui-sans-serif, system-ui, sans-serif; }
  .clip { fill: #9A4A24; }   /* labels that run past the frame in BEFORE */
</style>
<rect x="0" y="0" width="1120" height="660" fill="#F5F0E4"/>
<text x="560.0" y="30" text-anchor="middle" font-size="18" font-weight="800" fill="#221E16">Radar — before / after absorbing the disciplines from the families that beat it</text>
<text x="560.0" y="46" text-anchor="middle" font-size="11" fill="#221E16" fill-opacity="0.6">ILLUSTRATIVE MOCK — hand-authored, not renderer output. Identical radar geometry in both panels; only the label / tick treatments differ.</text>
<rect x="20" y="52" width="520" height="540" rx="10" fill="none" stroke="#221E16" stroke-opacity="0.25" stroke-dasharray="2 4"/>
<rect x="580" y="52" width="520" height="540" rx="10" fill="none" stroke="#221E16" stroke-opacity="0.25" stroke-dasharray="2 4"/>
<text x="290" y="74" text-anchor="middle" font-size="16" font-weight="700" fill="#221E16">BEFORE  (today's radar: static gutter reserve)</text>
<text x="290" y="94" text-anchor="middle" font-size="11.5" fill="#221E16" fill-opacity="0.7">long labels clip the frame · tick values wash out over rings</text>
<circle cx="290" cy="350" r="35" fill="none" stroke="#221E16" stroke-width="1" stroke-opacity="0.12"/>
<circle cx="290" cy="350" r="70" fill="none" stroke="#221E16" stroke-width="1" stroke-opacity="0.12"/>
<circle cx="290" cy="350" r="105" fill="none" stroke="#221E16" stroke-width="1" stroke-opacity="0.12"/>
<circle cx="290" cy="350" r="140" fill="none" stroke="#221E16" stroke-width="1.5" stroke-opacity="0.5"/>
<line x1="290" y1="350" x2="290.0" y2="210.0" stroke="#221E16" stroke-width="1" stroke-opacity="0.18"/>
<line x1="290" y1="350" x2="411.2" y2="280.0" stroke="#221E16" stroke-width="1" stroke-opacity="0.18"/>
<line x1="290" y1="350" x2="411.2" y2="420.0" stroke="#221E16" stroke-width="1" stroke-opacity="0.18"/>
<line x1="290" y1="350" x2="290.0" y2="490.0" stroke="#221E16" stroke-width="1" stroke-opacity="0.18"/>
<line x1="290" y1="350" x2="168.8" y2="420.0" stroke="#221E16" stroke-width="1" stroke-opacity="0.18"/>
<line x1="290" y1="350" x2="168.8" y2="280.0" stroke="#221E16" stroke-width="1" stroke-opacity="0.18"/>
<path d="M 290.0,238.0 L 362.7,308.0 L 338.5,378.0 L 290.0,462.0 L 217.3,392.0 L 168.8,280.0 Z" fill="#9A4A24" fill-opacity="0.28" stroke="#9A4A24" stroke-width="2" stroke-opacity="0.85" stroke-linejoin="round"/>
<circle cx="290.0" cy="238.0" r="3.4" fill="#9A4A24" stroke="#F5F0E4" stroke-width="1.4"/>
<circle cx="362.7" cy="308.0" r="3.4" fill="#9A4A24" stroke="#F5F0E4" stroke-width="1.4"/>
<circle cx="338.5" cy="378.0" r="3.4" fill="#9A4A24" stroke="#F5F0E4" stroke-width="1.4"/>
<circle cx="290.0" cy="462.0" r="3.4" fill="#9A4A24" stroke="#F5F0E4" stroke-width="1.4"/>
<circle cx="217.3" cy="392.0" r="3.4" fill="#9A4A24" stroke="#F5F0E4" stroke-width="1.4"/>
<circle cx="168.8" cy="280.0" r="3.4" fill="#9A4A24" stroke="#F5F0E4" stroke-width="1.4"/>
<path d="M 290.0,266.0 L 411.2,280.0 L 387.0,406.0 L 290.0,434.0 L 168.8,420.0 L 217.3,308.0 Z" fill="#2E6E6A" fill-opacity="0.28" stroke="#2E6E6A" stroke-width="2" stroke-opacity="0.85" stroke-linejoin="round"/>
<circle cx="290.0" cy="266.0" r="3.4" fill="#2E6E6A" stroke="#F5F0E4" stroke-width="1.4"/>
<circle cx="411.2" cy="280.0" r="3.4" fill="#2E6E6A" stroke="#F5F0E4" stroke-width="1.4"/>
<circle cx="387.0" cy="406.0" r="3.4" fill="#2E6E6A" stroke="#F5F0E4" stroke-width="1.4"/>
<circle cx="290.0" cy="434.0" r="3.4" fill="#2E6E6A" stroke="#F5F0E4" stroke-width="1.4"/>
<circle cx="168.8" cy="420.0" r="3.4" fill="#2E6E6A" stroke="#F5F0E4" stroke-width="1.4"/>
<circle cx="217.3" cy="308.0" r="3.4" fill="#2E6E6A" stroke="#F5F0E4" stroke-width="1.4"/>
<text x="307.5" y="319.7" text-anchor="middle" dominant-baseline="middle" font-size="10" fill="#221E16" fill-opacity="0.55">1</text>
<text x="325.0" y="289.4" text-anchor="middle" dominant-baseline="middle" font-size="10" fill="#221E16" fill-opacity="0.55">2</text>
<text x="342.5" y="259.1" text-anchor="middle" dominant-baseline="middle" font-size="10" fill="#221E16" fill-opacity="0.55">4</text>
<text x="360.0" y="228.8" text-anchor="middle" dominant-baseline="middle" font-size="10" fill="#221E16" fill-opacity="0.55">5</text>
<text x="290.0" y="183.4" text-anchor="middle" font-size="12" fill="#221E16" class="ok">Speed</text>
<text x="436.9" y="268.2" text-anchor="start" font-size="12" fill="#221E16" class="ok">Accuracy</text>
<text x="436.9" y="437.8" text-anchor="start" font-size="12" fill="#221E16" class="clip">Operational cost efficiency</text>
<text x="290.0" y="522.6" text-anchor="middle" font-size="12" fill="#221E16" class="ok">Safety</text>
<text x="143.1" y="437.8" text-anchor="end" font-size="12" fill="#221E16" class="clip">Context-window utilisation</text>
<text x="143.1" y="268.2" text-anchor="end" font-size="12" fill="#221E16" class="ok">Latency</text>
<text x="810" y="74" text-anchor="middle" font-size="16" font-weight="700" fill="#221E16">AFTER  (union of lessons applied)</text>
<text x="810" y="94" text-anchor="middle" font-size="11.5" fill="#221E16" fill-opacity="0.7">ER de-collision + quadrant leaders · flowchart knockout ticks · timeline wrap</text>
<circle cx="810" cy="350" r="35" fill="none" stroke="#221E16" stroke-width="1" stroke-opacity="0.12"/>
<circle cx="810" cy="350" r="70" fill="none" stroke="#221E16" stroke-width="1" stroke-opacity="0.12"/>
<circle cx="810" cy="350" r="105" fill="none" stroke="#221E16" stroke-width="1" stroke-opacity="0.12"/>
<circle cx="810" cy="350" r="140" fill="none" stroke="#221E16" stroke-width="1.5" stroke-opacity="0.5"/>
<line x1="810" y1="350" x2="810.0" y2="210.0" stroke="#221E16" stroke-width="1" stroke-opacity="0.18"/>
<line x1="810" y1="350" x2="931.2" y2="280.0" stroke="#221E16" stroke-width="1" stroke-opacity="0.18"/>
<line x1="810" y1="350" x2="931.2" y2="420.0" stroke="#221E16" stroke-width="1" stroke-opacity="0.18"/>
<line x1="810" y1="350" x2="810.0" y2="490.0" stroke="#221E16" stroke-width="1" stroke-opacity="0.18"/>
<line x1="810" y1="350" x2="688.8" y2="420.0" stroke="#221E16" stroke-width="1" stroke-opacity="0.18"/>
<line x1="810" y1="350" x2="688.8" y2="280.0" stroke="#221E16" stroke-width="1" stroke-opacity="0.18"/>
<path d="M 810.0,238.0 L 882.7,308.0 L 858.5,378.0 L 810.0,462.0 L 737.3,392.0 L 688.8,280.0 Z" fill="#9A4A24" fill-opacity="0.28" stroke="#9A4A24" stroke-width="2" stroke-opacity="0.85" stroke-linejoin="round"/>
<circle cx="810.0" cy="238.0" r="3.4" fill="#9A4A24" stroke="#F5F0E4" stroke-width="1.4"/>
<circle cx="882.7" cy="308.0" r="3.4" fill="#9A4A24" stroke="#F5F0E4" stroke-width="1.4"/>
<circle cx="858.5" cy="378.0" r="3.4" fill="#9A4A24" stroke="#F5F0E4" stroke-width="1.4"/>
<circle cx="810.0" cy="462.0" r="3.4" fill="#9A4A24" stroke="#F5F0E4" stroke-width="1.4"/>
<circle cx="737.3" cy="392.0" r="3.4" fill="#9A4A24" stroke="#F5F0E4" stroke-width="1.4"/>
<circle cx="688.8" cy="280.0" r="3.4" fill="#9A4A24" stroke="#F5F0E4" stroke-width="1.4"/>
<path d="M 810.0,266.0 L 931.2,280.0 L 907.0,406.0 L 810.0,434.0 L 688.8,420.0 L 737.3,308.0 Z" fill="#2E6E6A" fill-opacity="0.28" stroke="#2E6E6A" stroke-width="2" stroke-opacity="0.85" stroke-linejoin="round"/>
<circle cx="810.0" cy="266.0" r="3.4" fill="#2E6E6A" stroke="#F5F0E4" stroke-width="1.4"/>
<circle cx="931.2" cy="280.0" r="3.4" fill="#2E6E6A" stroke="#F5F0E4" stroke-width="1.4"/>
<circle cx="907.0" cy="406.0" r="3.4" fill="#2E6E6A" stroke="#F5F0E4" stroke-width="1.4"/>
<circle cx="810.0" cy="434.0" r="3.4" fill="#2E6E6A" stroke="#F5F0E4" stroke-width="1.4"/>
<circle cx="688.8" cy="420.0" r="3.4" fill="#2E6E6A" stroke="#F5F0E4" stroke-width="1.4"/>
<circle cx="737.3" cy="308.0" r="3.4" fill="#2E6E6A" stroke="#F5F0E4" stroke-width="1.4"/>
<rect x="818.5" y="311.7" width="18" height="16" rx="4" fill="#F5F0E4" stroke="#221E16" stroke-opacity="0.28" stroke-width="0.75"/>
<text x="827.5" y="319.7" text-anchor="middle" dominant-baseline="central" font-size="10" fill="#221E16">1</text>
<rect x="836.0" y="281.4" width="18" height="16" rx="4" fill="#F5F0E4" stroke="#221E16" stroke-opacity="0.28" stroke-width="0.75"/>
<text x="845.0" y="289.4" text-anchor="middle" dominant-baseline="central" font-size="10" fill="#221E16">2</text>
<rect x="853.5" y="251.1" width="18" height="16" rx="4" fill="#F5F0E4" stroke="#221E16" stroke-opacity="0.28" stroke-width="0.75"/>
<text x="862.5" y="259.1" text-anchor="middle" dominant-baseline="central" font-size="10" fill="#221E16">4</text>
<rect x="871.0" y="220.8" width="18" height="16" rx="4" fill="#F5F0E4" stroke="#221E16" stroke-opacity="0.28" stroke-width="0.75"/>
<text x="880.0" y="228.8" text-anchor="middle" dominant-baseline="central" font-size="10" fill="#221E16">5</text>
<text x="810.0" y="183.4" text-anchor="middle" font-size="12" fill="#221E16" class="ok">Speed</text>
<text x="956.9" y="268.2" text-anchor="start" font-size="12" fill="#221E16" class="ok">Accuracy</text>
<line x1="931.2" y1="420.0" x2="966.9" y2="440.6" stroke="#221E16" stroke-opacity="0.35" stroke-width="1"/>
<text x="966.9" y="440.6" text-anchor="start" font-size="12" fill="#221E16" class="ok"><tspan x="966.9" dy="-7">Operational</tspan><tspan x="966.9" dy="14">cost efficiency</tspan></text>
<text x="810.0" y="522.6" text-anchor="middle" font-size="12" fill="#221E16" class="ok">Safety</text>
<line x1="688.8" y1="420.0" x2="653.1" y2="440.6" stroke="#221E16" stroke-opacity="0.35" stroke-width="1"/>
<text x="653.1" y="440.6" text-anchor="end" font-size="12" fill="#221E16" class="ok"><tspan x="653.1" dy="-7">Context-window</tspan><tspan x="653.1" dy="14">utilisation</tspan></text>
<text x="663.1" y="268.2" text-anchor="end" font-size="12" fill="#221E16" class="ok">Latency</text>
<line x1="560.0" y1="52" x2="560.0" y2="592" stroke="#221E16" stroke-opacity="0.15"/>
<text x="560.0" y="642" text-anchor="middle" font-size="11" fill="#221E16" fill-opacity="0.75">Applied: ER separateRelationshipLabels (active de-collision) · quadrant spiral+leader lines · flowchart bordered knockout label box · timeline budget-compression wrap · journey WCAG-AA label ink</text>
</svg>