<svg xmlns="http://www.w3.org/2000/svg" viewBox="0 0 604 370.29999999999995" width="604" height="370.29999999999995" style="--bg:#FFFFFF;--fg:#27272A;--font:Inter;background:#FFFFFF" role="img" aria-roledescription="user journey" aria-labelledby="journey-1b2tn0r-title">
<title id="journey-1b2tn0r-title">Product journey</title>
<style>
  @import url('https://fonts.googleapis.com/css2?family=Inter:wght@400;500;600;700&amp;display=swap');
  text { font-family: var(--font, 'Inter'), system-ui, sans-serif; }
  svg {
    /* Derived from --bg and --fg (overridable via --line, --accent, etc.) */
    --_text:          #27272A;
    --_text-sec:      #7d7d7f;
    --_text-muted:    #a9a9aa;
    --_text-faint:    #c9c9ca;
    --_line:          #939395;
    --_arrow:         #47474a;
    --_node-fill:     #f9f9f9;
    --_node-stroke:   #d4d4d4;
    --_group-fill:    #FFFFFF;
    --_group-hdr:     #f4f4f4;
    --_inner-stroke:  #e5e5e5;
    --_edge-label-bg: #fbfbfb;
    --_edge-label-stroke: #e9e9ea;
    --_key-badge:     #e9e9ea;
  }
</style>
<style>
  .journey-title { fill: #27272A; }
  .journey-section-bg { fill: #fafafa; stroke: #d4d4d4; stroke-width: 1; }
  .journey-section-band { fill: #f0f0f1; stroke: #d4d4d4; stroke-width: 1; }
  .journey-section-label { fill: #7d7d7f; }
  .journey-task-card { fill: #f9f9f9; stroke: #d4d4d4; stroke-width: 1; }
  .journey-task-text { fill: #27272A; }
  .journey-score-cell-filled { fill: #47474a; stroke: #47474a; stroke-width: 1; }
  .journey-score-cell-empty { fill: #fcfcfc; stroke: #dcdcdc; stroke-width: 1; }
  .journey-actor-pill { fill: #f0f0f1; stroke: #d7d7d7; stroke-width: 1; }
  .journey-actor-text { fill: #7d7d7f; }
</style>
<g class="journey-section" data-id="section-0" data-label="Discover">
  <rect class="journey-section-bg" x="32" y="75.4" width="256" height="156.8" rx="0" ry="0" />
  <path class="journey-section-band" d="M32,75.4 H288 V103 H32 Z" />
  <text x="44" y="89.2" class="journey-section-label" text-anchor="start" font-size="12" font-weight="600" dy="4.199999999999999">Discover</text>
</g>
<g class="journey-section" data-id="section-1" data-label="Deliver">
  <rect class="journey-section-bg" x="316" y="75.4" width="256" height="266.9" rx="0" ry="0" />
  <path class="journey-section-band" d="M316,75.4 H572 V103 H316 Z" />
  <text x="328" y="89.2" class="journey-section-label" text-anchor="start" font-size="12" font-weight="600" dy="4.199999999999999">Deliver</text>
</g>
<g class="journey-task" data-id="task-0" data-score="4" data-section="Discover" data-actors="PM, Research">
  <rect class="journey-task-card" x="50" y="135" width="220" height="79.2" rx="0" ry="0" />
  <text x="64" y="155.45" class="journey-task-text" text-anchor="start" font-size="13" font-weight="500" dy="4.55">Interview users</text>
  <rect class="journey-score-cell-filled" x="186" y="150.45" width="10" height="10" rx="2" ry="2" />
  <rect class="journey-score-cell-filled" x="201" y="150.45" width="10" height="10" rx="2" ry="2" />
  <rect class="journey-score-cell-filled" x="216" y="150.45" width="10" height="10" rx="2" ry="2" />
  <rect class="journey-score-cell-filled" x="231" y="150.45" width="10" height="10" rx="2" ry="2" />
  <rect class="journey-score-cell-empty" x="246" y="150.45" width="10" height="10" rx="2" ry="2" />
  <g class="journey-actor" data-actor="PM">
    <rect class="journey-actor-pill" x="64" y="175.9" width="44" height="26.3" rx="13.15" ry="13.15" />
    <text x="86" y="189.05" class="journey-actor-text" text-anchor="middle" font-size="11" font-weight="600" dy="3.8499999999999996">PM</text>
  </g>
  <g class="journey-actor" data-actor="Research">
    <rect class="journey-actor-pill" x="114" y="175.9" width="70.44999999999999" height="26.3" rx="13.15" ry="13.15" />
    <text x="149.225" y="189.05" class="journey-actor-text" text-anchor="middle" font-size="11" font-weight="600" dy="3.8499999999999996">Research</text>
  </g>
</g>
<g class="journey-task" data-id="task-1" data-score="3" data-section="Deliver" data-actors="Design, Eng">
  <rect class="journey-task-card" x="334" y="135" width="220" height="96.1" rx="0" ry="0" />
  <text x="348" y="163.9" class="journey-task-text" text-anchor="start" font-size="13" font-weight="500"><tspan x="348" dy="-3.9000000000000012">Prototype</tspan><tspan x="348" dy="16.900000000000002">review</tspan></text>
  <rect class="journey-score-cell-filled" x="470" y="158.9" width="10" height="10" rx="2" ry="2" />
  <rect class="journey-score-cell-filled" x="485" y="158.9" width="10" height="10" rx="2" ry="2" />
  <rect class="journey-score-cell-filled" x="500" y="158.9" width="10" height="10" rx="2" ry="2" />
  <rect class="journey-score-cell-empty" x="515" y="158.9" width="10" height="10" rx="2" ry="2" />
  <rect class="journey-score-cell-empty" x="530" y="158.9" width="10" height="10" rx="2" ry="2" />
  <g class="journey-actor" data-actor="Design">
    <rect class="journey-actor-pill" x="348" y="192.8" width="54.60999999999999" height="26.3" rx="13.15" ry="13.15" />
    <text x="375.305" y="205.95000000000002" class="journey-actor-text" text-anchor="middle" font-size="11" font-weight="600" dy="3.8499999999999996">Design</text>
  </g>
  <g class="journey-actor" data-actor="Eng">
    <rect class="journey-actor-pill" x="408.61" y="192.8" width="44" height="26.3" rx="13.15" ry="13.15" />
    <text x="430.61" y="205.95000000000002" class="journey-actor-text" text-anchor="middle" font-size="11" font-weight="600" dy="3.8499999999999996">Eng</text>
  </g>
</g>
<g class="journey-task" data-id="task-2" data-score="5" data-section="Deliver" data-actors="Eng, QA">
  <rect class="journey-task-card" x="334" y="245.1" width="220" height="79.2" rx="0" ry="0" />
  <text x="348" y="265.55" class="journey-task-text" text-anchor="start" font-size="13" font-weight="500" dy="4.55">Ship</text>
  <rect class="journey-score-cell-filled" x="470" y="260.55" width="10" height="10" rx="2" ry="2" />
  <rect class="journey-score-cell-filled" x="485" y="260.55" width="10" height="10" rx="2" ry="2" />
  <rect class="journey-score-cell-filled" x="500" y="260.55" width="10" height="10" rx="2" ry="2" />
  <rect class="journey-score-cell-filled" x="515" y="260.55" width="10" height="10" rx="2" ry="2" />
  <rect class="journey-score-cell-filled" x="530" y="260.55" width="10" height="10" rx="2" ry="2" />
  <g class="journey-actor" data-actor="Eng">
    <rect class="journey-actor-pill" x="348" y="286" width="44" height="26.3" rx="13.15" ry="13.15" />
    <text x="370" y="299.15" class="journey-actor-text" text-anchor="middle" font-size="11" font-weight="600" dy="3.8499999999999996">Eng</text>
  </g>
  <g class="journey-actor" data-actor="QA">
    <rect class="journey-actor-pill" x="398" y="286" width="44" height="26.3" rx="13.15" ry="13.15" />
    <text x="420" y="299.15" class="journey-actor-text" text-anchor="middle" font-size="11" font-weight="600" dy="3.8499999999999996">QA</text>
  </g>
</g>
<text x="302" y="39.7" class="journey-title" text-anchor="middle" font-size="18" font-weight="600" dy="6.3">Product journey</text>
</svg>
